<svg width="1000" height="1001" viewBox="0 0 1000 1001" fill="none" xmlns="http://www.w3.org/2000/svg">
<path d="M900 0.831055H100C44.7715 0.831055 0 45.6026 0 100.831V900.831C0 956.06 44.7715 1000.83 100 1000.83H900C955.228 1000.83 1000 956.06 1000 900.831V100.831C1000 45.6026 955.228 0.831055 900 0.831055Z" fill="#0B7381"/>
<path d="M682.398 525.048C643.146 565.509 642.542 643.411 672.133 667.566C706.554 695.345 748.827 633.145 741.58 566.717C737.353 532.295 716.216 497.269 682.398 525.048Z" fill="white"/>
<path d="M711.99 684.475C689.042 706.819 678.172 749.091 685.418 759.961C693.269 772.643 718.028 737.617 725.879 706.819C727.691 699.572 728.295 694.741 728.295 691.722C728.899 688.702 728.898 669.982 711.99 684.475Z" fill="white"/>
<path d="M686.022 786.533C676.964 794.987 665.49 814.311 665.49 816.727C665.49 819.143 676.964 806.461 684.211 796.195C687.834 790.76 689.645 787.136 689.645 785.929C689.645 783.513 687.23 785.929 686.022 786.533Z" fill="white"/>
<path d="M700.515 380.719C684.814 423.595 720.444 518.406 744.6 530.484C766.34 541.354 768.755 487.607 748.827 430.842C734.333 390.381 711.385 360.79 700.515 380.719Z" fill="white"/>
<path d="M580.341 261.148C568.868 291.947 640.126 374.68 678.775 376.491C710.178 377.699 695.08 326.972 652.204 286.512C629.256 264.772 592.419 243.032 580.341 261.148Z" fill="white"/>
<path d="M623.822 253.298C625.633 247.863 599.062 228.538 579.738 217.064C564.64 208.61 547.731 200.759 543.504 202.571C543.504 202.571 542.9 203.175 544.108 205.59C549.543 216.46 615.367 256.921 623.822 253.298Z" fill="white"/>
<path d="M559.205 375.284C606.309 371.056 609.328 319.726 564.036 284.096C539.881 264.772 492.173 246.051 466.206 266.583C465.602 267.791 464.394 268.395 463.187 269.603C439.031 303.421 498.816 380.719 559.205 375.284Z" fill="white"/>
<path d="M442.051 258.129C455.94 251.486 450.505 235.181 422.726 224.311C403.402 216.461 374.415 213.441 364.753 220.688C364.149 221.292 363.545 222.5 363.545 223.104C359.318 236.993 414.876 270.811 442.051 258.129Z" fill="white"/>
<path d="M328.519 212.234C330.331 210.422 324.896 207.402 313.422 205.591C304.364 204.383 291.078 204.383 288.058 206.195C287.455 208.006 301.344 211.026 310.402 212.234C321.876 214.649 327.311 213.441 328.519 212.234Z" fill="white"/>
<path d="M443.862 380.115C388.908 421.784 419.707 505.12 479.492 519.01C542.296 532.899 587.588 466.471 552.562 410.913C531.426 377.096 483.115 356.563 443.862 380.115Z" fill="white"/>
<path d="M328.519 397.628C294.098 418.16 305.571 470.095 339.389 480.965C374.415 492.439 405.213 456.205 389.512 422.388C379.246 401.855 352.675 386.758 328.519 397.628Z" fill="white"/>
<path d="M249.41 402.459C234.313 410.309 234.916 433.257 246.994 441.711C260.884 450.77 277.189 436.276 272.961 418.16C270.546 407.29 260.28 398.835 249.41 402.459Z" fill="white"/>
<path d="M536.861 523.237C478.888 563.093 488.55 647.638 538.069 669.982C597.25 696.553 660.659 624.086 636.503 557.055C626.237 527.464 590.608 493.646 536.861 523.237Z" fill="white"/>
<path d="M468.622 685.683C432.388 705.007 431.784 747.884 458.355 762.981C494.589 783.513 543.504 745.468 530.822 706.215C525.991 689.91 504.251 669.982 468.622 685.683Z" fill="white"/>
<path d="M411.252 791.967C393.739 799.818 394.947 816.727 408.233 823.37C425.142 831.824 447.486 818.538 442.655 802.837C439.635 794.383 428.765 785.325 411.252 791.967Z" fill="white"/>
<path d="M494.589 178.416L489.758 176.604C488.55 176 488.55 176 487.946 176C510.29 188.682 530.219 191.701 530.219 191.701C517.537 186.266 505.459 182.039 494.589 178.416Z" fill="white"/>
</svg>
