<svg width="525" height="650" viewBox="0 0 525 650" fill="none" xmlns="http://www.w3.org/2000/svg">
<path d="M444.398 349.048C405.146 389.509 404.542 467.411 434.133 491.566C468.554 519.345 510.827 457.145 503.58 390.717C499.353 356.295 478.216 321.269 444.398 349.048Z" fill="black"/>
<path d="M473.99 508.475C451.042 530.819 440.172 573.091 447.418 583.961C455.269 596.643 480.028 561.617 487.879 530.819C489.691 523.572 490.295 518.741 490.295 515.722C490.899 512.702 490.898 493.982 473.99 508.475Z" fill="black"/>
<path d="M448.022 610.532C438.964 618.987 427.49 638.311 427.49 640.727C427.49 643.142 438.964 630.461 446.211 620.195C449.834 614.76 451.645 611.136 451.645 609.928C451.645 607.513 449.23 609.928 448.022 610.532Z" fill="black"/>
<path d="M462.515 204.719C446.814 247.595 482.444 342.406 506.6 354.483C528.34 365.353 530.755 311.607 510.827 254.841C496.333 214.381 473.385 184.79 462.515 204.719Z" fill="black"/>
<path d="M342.341 85.1484C330.868 115.947 402.126 198.68 440.775 200.491C472.178 201.699 457.08 150.972 414.204 110.512C391.256 88.7718 354.419 67.0318 342.341 85.1484Z" fill="black"/>
<path d="M385.822 77.2977C387.633 71.8627 361.062 52.5382 341.738 41.0643C326.64 32.6098 309.731 24.7592 305.504 26.5709C305.504 26.5709 304.9 27.1748 306.108 29.5903C311.543 40.4603 377.367 80.921 385.822 77.2977Z" fill="black"/>
<path d="M321.205 199.284C368.309 195.057 371.328 143.726 326.036 108.096C301.881 88.7719 254.173 70.0513 228.206 90.5836C227.602 91.7914 226.394 92.3953 225.187 93.603C201.031 127.421 260.816 204.719 321.205 199.284Z" fill="black"/>
<path d="M204.051 82.1293C217.94 75.4865 212.505 59.1814 184.726 48.3114C165.402 40.4608 136.415 37.4413 126.753 44.688C126.149 45.2919 125.545 46.4997 125.545 47.1036C121.318 60.9931 176.876 94.8109 204.051 82.1293Z" fill="black"/>
<path d="M90.5192 36.2336C92.3308 34.4219 86.8958 31.4024 75.4219 29.5908C66.3636 28.383 53.0779 28.383 50.0585 30.1947C49.4546 32.0064 63.3441 35.0258 72.4025 36.2336C83.8764 38.6491 89.3114 37.4414 90.5192 36.2336Z" fill="black"/>
<path d="M205.862 204.115C150.908 245.783 181.707 329.12 241.492 343.01C304.296 356.899 349.588 290.471 314.562 234.913C293.426 201.096 245.115 180.563 205.862 204.115Z" fill="black"/>
<path d="M90.5193 221.628C56.0975 242.16 67.5714 294.095 101.389 304.965C136.415 316.439 167.213 280.205 151.512 246.388C141.246 225.855 114.675 210.758 90.5193 221.628Z" fill="black"/>
<path d="M11.4098 226.459C-3.68741 234.309 -3.08366 257.257 8.99413 265.711C22.8836 274.77 39.1886 260.276 34.9613 242.16C32.5458 231.29 22.2799 222.835 11.4098 226.459Z" fill="black"/>
<path d="M298.861 347.237C240.888 387.093 250.55 471.638 300.069 493.982C359.25 520.553 422.659 448.086 398.503 381.055C388.237 351.464 352.608 317.646 298.861 347.237Z" fill="black"/>
<path d="M230.622 509.683C194.388 529.007 193.784 571.884 220.355 586.981C256.589 607.513 305.504 569.468 292.822 530.215C287.991 513.91 266.251 493.982 230.622 509.683Z" fill="black"/>
<path d="M173.252 615.967C155.739 623.818 156.947 640.727 170.233 647.37C187.142 655.824 209.486 642.538 204.655 626.837C201.635 618.383 190.765 609.325 173.252 615.967Z" fill="black"/>
<path d="M256.589 2.41552L251.758 0.603927C250.55 3.68495e-05 250.55 0 249.946 0C272.29 12.6817 292.219 15.7012 292.219 15.7012C279.537 10.2662 267.459 6.03886 256.589 2.41552Z" fill="black"/>
</svg>
